# xmcd
#
# Track frame offsets: 
#        150
#        16037
#        36292
#        58125
#        75242
#        99037
#        118532
#        134215
#        150612
#        166152
#
# Disc length: 2621 seconds
#
# Revision: 4
# Processed by: cddbd v1.5.2PL0 Copyright (c) Steve Scherf et al.
# Submitted via: ExactAudioCopy v0.95b4
#
DISCID=6f0a3b0a
DTITLE=Charlie Daniels - America, I Believe In You
DYEAR=1993
DGENRE=Southern Rock
TTITLE0=All Night Long
TTITLE1=Troubles Of My Own
TTITLE2=Tennessee Two Step
TTITLE3=The Girl Next Door
TTITLE4=America, I Believe In You
TTITLE5=Oh Juanita
TTITLE6=Sweet Little Country Girl
TTITLE7=Alley Cat
TTITLE8=What You Gonna Do About Me
TTITLE9=San Miguel
EXTD=
EXTT0=
EXTT1=
EXTT2=
EXTT3=
EXTT4=
EXTT5=
EXTT6=
EXTT7=
EXTT8=
EXTT9=
PLAYORDER=
